<svg width="30" height="30" viewBox="0 0 30 30" fill="none" xmlns="http://www.w3.org/2000/svg">
<g clip-path="url(#clip0_90_381)">
<path fill-rule="evenodd" clip-rule="evenodd" d="M15 0C23.2845 0 30 6.88489 30 15.3794C30 22.1729 25.707 27.9359 19.7505 29.9714C18.99 30.1229 18.72 29.6427 18.72 29.2332C18.72 28.7262 18.738 27.0702 18.738 25.0122C18.738 23.5782 18.258 22.6423 17.7195 22.1653C21.06 21.7843 24.57 20.4837 24.57 14.5767C24.57 12.8967 23.988 11.5257 23.025 10.4487C23.181 10.0602 23.6955 8.49593 22.878 6.37793C22.878 6.37793 21.621 5.96583 18.7575 7.95483C17.559 7.61433 16.275 7.44301 15 7.43701C13.725 7.44301 12.4425 7.61433 11.2455 7.95483C8.379 5.96583 7.119 6.37793 7.119 6.37793C6.3045 8.49593 6.819 10.0602 6.9735 10.4487C6.015 11.5257 5.4285 12.8967 5.4285 14.5767C5.4285 20.4687 8.931 21.7892 12.2625 22.1777C11.8335 22.5617 11.445 23.2391 11.31 24.2336C10.455 24.6266 8.283 25.3068 6.945 22.9563C6.945 22.9563 6.1515 21.4786 4.6455 21.3706C4.6455 21.3706 3.183 21.3512 4.5435 22.3052C4.5435 22.3052 5.526 22.7777 6.2085 24.5552C6.2085 24.5552 7.089 27.3001 11.262 26.3701C11.2695 27.6556 11.283 28.8672 11.283 29.2332C11.283 29.6397 11.007 30.1154 10.2585 29.9729C4.2975 27.9404 0 22.1744 0 15.3794C0 6.88489 6.717 0 15 0Z" fill="white"/>
</g>
<defs>
<clipPath id="clip0_90_381">
<rect width="30" height="30" fill="white"/>
</clipPath>
</defs>
</svg>
