<svg width="30" height="30" viewBox="0 0 30 30" fill="none" xmlns="http://www.w3.org/2000/svg">
<path fill-rule="evenodd" clip-rule="evenodd" d="M15 22.5C19.1421 22.5 22.5 19.1421 22.5 15C22.5 10.8579 19.1421 7.5 15 7.5C10.8579 7.5 7.5 10.8579 7.5 15C7.5 19.1421 10.8579 22.5 15 22.5ZM15 20C17.7614 20 20 17.7614 20 15C20 12.2386 17.7614 10 15 10C12.2386 10 10 12.2386 10 15C10 17.7614 12.2386 20 15 20Z" fill="white"/>
<path d="M22.5 6.25C21.8096 6.25 21.25 6.80965 21.25 7.5C21.25 8.19035 21.8096 8.75 22.5 8.75C23.1904 8.75 23.75 8.19035 23.75 7.5C23.75 6.80965 23.1904 6.25 22.5 6.25Z" fill="white"/>
<path fill-rule="evenodd" clip-rule="evenodd" d="M2.06745 5.34508C1.25 6.94941 1.25 9.04961 1.25 13.25V16.75C1.25 20.9504 1.25 23.0506 2.06745 24.6549C2.7865 26.0661 3.93385 27.2135 5.34508 27.9325C6.94941 28.75 9.04961 28.75 13.25 28.75H16.75C20.9504 28.75 23.0506 28.75 24.6549 27.9325C26.0661 27.2135 27.2135 26.0661 27.9325 24.6549C28.75 23.0506 28.75 20.9504 28.75 16.75V13.25C28.75 9.04961 28.75 6.94941 27.9325 5.34508C27.2135 3.93385 26.0661 2.7865 24.6549 2.06745C23.0506 1.25 20.9504 1.25 16.75 1.25H13.25C9.04961 1.25 6.94941 1.25 5.34508 2.06745C3.93385 2.7865 2.7865 3.93385 2.06745 5.34508ZM16.75 3.75H13.25C11.1086 3.75 9.65281 3.75195 8.5276 3.84387C7.43155 3.93342 6.87105 4.09574 6.48005 4.29496C5.53924 4.77434 4.77434 5.53924 4.29496 6.48005C4.09574 6.87105 3.93342 7.43155 3.84387 8.5276C3.75195 9.65281 3.75 11.1086 3.75 13.25V16.75C3.75 18.8915 3.75195 20.3471 3.84387 21.4724C3.93342 22.5685 4.09574 23.129 4.29496 23.52C4.77434 24.4608 5.53924 25.2256 6.48005 25.705C6.87105 25.9042 7.43155 26.0666 8.5276 26.1561C9.65281 26.248 11.1086 26.25 13.25 26.25H16.75C18.8915 26.25 20.3471 26.248 21.4724 26.1561C22.5685 26.0666 23.129 25.9042 23.52 25.705C24.4608 25.2256 25.2256 24.4608 25.705 23.52C25.9042 23.129 26.0666 22.5685 26.1561 21.4724C26.248 20.3471 26.25 18.8915 26.25 16.75V13.25C26.25 11.1086 26.248 9.65281 26.1561 8.5276C26.0666 7.43155 25.9042 6.87105 25.705 6.48005C25.2256 5.53924 24.4608 4.77434 23.52 4.29496C23.129 4.09574 22.5685 3.93342 21.4724 3.84387C20.3471 3.75195 18.8915 3.75 16.75 3.75Z" fill="white"/>
</svg>
