<svg width="30" height="30" viewBox="0 0 30 30" fill="none" xmlns="http://www.w3.org/2000/svg">
<path d="M8.125 10C9.16054 10 10 9.16054 10 8.125C10 7.08946 9.16054 6.25 8.125 6.25C7.08946 6.25 6.25 7.08946 6.25 8.125C6.25 9.16054 7.08946 10 8.125 10Z" fill="white"/>
<path d="M6.25 12.5C6.25 11.8097 6.80965 11.25 7.5 11.25H8.75C9.44035 11.25 10 11.8096 10 12.5V22.5C10 23.1904 9.44035 23.75 8.75 23.75H7.5C6.80965 23.75 6.25 23.1904 6.25 22.5V12.5Z" fill="white"/>
<path d="M13.75 23.75H15C15.6904 23.75 16.25 23.1904 16.25 22.5V16.875C16.25 15 20 13.75 20 16.25V22.5005C20 23.1909 20.5596 23.75 21.25 23.75H22.5C23.1904 23.75 23.75 23.1904 23.75 22.5V15C23.75 12.5 21.875 11.25 19.375 11.25C16.875 11.25 16.25 13.125 16.25 13.125V12.5C16.25 11.8096 15.6904 11.25 15 11.25H13.75C13.0596 11.25 12.5 11.8097 12.5 12.5V22.5C12.5 23.1904 13.0596 23.75 13.75 23.75Z" fill="white"/>
<path fill-rule="evenodd" clip-rule="evenodd" d="M25 1.25C27.0711 1.25 28.75 2.92894 28.75 5V25C28.75 27.0711 27.0711 28.75 25 28.75H5C2.92894 28.75 1.25 27.0711 1.25 25V5C1.25 2.92894 2.92894 1.25 5 1.25H25ZM25 3.75C25.6904 3.75 26.25 4.30965 26.25 5V25C26.25 25.6904 25.6904 26.25 25 26.25H5C4.30965 26.25 3.75 25.6904 3.75 25V5C3.75 4.30965 4.30965 3.75 5 3.75H25Z" fill="white"/>
</svg>
