<svg width="30" height="30" viewBox="0 0 30 30" fill="none" xmlns="http://www.w3.org/2000/svg">
<path fill-rule="evenodd" clip-rule="evenodd" d="M4.37503 15C4.37503 9.13197 9.132 4.375 15 4.375C20.868 4.375 25.625 9.13197 25.625 15C25.625 20.868 20.868 25.625 15 25.625C12.9098 25.625 10.9641 25.0227 9.32248 23.9826C9.01696 23.7891 8.6426 23.7374 8.29605 23.8407L4.69711 24.9149L6.05216 21.7441C6.21233 21.3694 6.17974 20.9401 5.96484 20.5939C4.95713 18.97 4.37503 17.0549 4.37503 15ZM15 1.875C7.75129 1.875 1.87503 7.75126 1.87503 15C1.87503 17.2976 2.46645 19.4604 3.50581 21.3409L1.35059 26.3837C1.16006 26.8296 1.24451 27.3454 1.56728 27.7071C1.89004 28.069 2.3929 28.2115 2.85749 28.0727L8.48176 26.3944C10.4031 27.4956 12.6296 28.125 15 28.125C22.2488 28.125 28.125 22.2487 28.125 15C28.125 7.75126 22.2488 1.875 15 1.875ZM17.8656 17.728L16.2229 18.8851C15.4535 18.4469 14.6029 17.8351 13.7496 16.9819C12.8626 16.0949 12.205 15.1791 11.7202 14.3391L12.7641 13.453C13.2121 13.0727 13.3348 12.4317 13.0588 11.9128L11.7286 9.41285C11.5494 9.07621 11.2265 8.83975 10.8514 8.77067C10.4764 8.70161 10.0904 8.8075 9.80309 9.05824L9.4087 9.40244C8.46029 10.2302 7.89938 11.5904 8.36426 12.9676C8.84623 14.3954 9.87479 16.6425 11.9819 18.7496C14.2489 21.0166 16.5516 21.9094 17.8983 22.2561C18.9832 22.5354 20.01 22.161 20.7335 21.5715L21.4729 20.969C21.7891 20.7114 21.9598 20.3155 21.93 19.9086C21.9001 19.5017 21.6736 19.135 21.3231 18.9261L19.2253 17.6761C18.8015 17.4237 18.269 17.444 17.8656 17.728Z" fill="white"/>
</svg>
