<svg width="60" height="60" viewBox="0 0 60 60" fill="none" xmlns="http://www.w3.org/2000/svg">
<path fill-rule="evenodd" clip-rule="evenodd" d="M30 30C30 25.8579 33.3579 22.5 37.5 22.5C41.6421 22.5 45 25.8579 45 30C45 34.1421 41.6421 37.5 37.5 37.5C33.3579 37.5 30 34.1421 30 30Z" fill="#1ABCFE"/>
<path fill-rule="evenodd" clip-rule="evenodd" d="M15 45C15 40.8579 18.3579 37.5 22.5 37.5H30V45C30 49.1421 26.6421 52.5 22.5 52.5C18.3579 52.5 15 49.1421 15 45Z" fill="#0ACF83"/>
<path fill-rule="evenodd" clip-rule="evenodd" d="M30 7.5V22.5H37.5C41.6421 22.5 45 19.1421 45 15C45 10.8579 41.6421 7.5 37.5 7.5H30Z" fill="#FF7262"/>
<path fill-rule="evenodd" clip-rule="evenodd" d="M15 15C15 19.1421 18.3579 22.5 22.5 22.5H30V7.5H22.5C18.3579 7.5 15 10.8579 15 15Z" fill="#F24E1E"/>
<path fill-rule="evenodd" clip-rule="evenodd" d="M15 30C15 34.1421 18.3579 37.5 22.5 37.5H30V22.5H22.5C18.3579 22.5 15 25.8579 15 30Z" fill="#A259FF"/>
</svg>
