<svg width="60" height="60" viewBox="0 0 60 60" fill="none" xmlns="http://www.w3.org/2000/svg">
<path d="M4.84755 32.6497C3.38415 31.1863 3.38415 28.8137 4.84755 27.3503L27.3503 4.84755C28.8137 3.38415 31.1863 3.38415 32.6498 4.84755L55.1524 27.3503C56.6158 28.8137 56.6158 31.1863 55.1524 32.6497L32.6498 55.1524C31.1863 56.6158 28.8137 56.6158 27.3503 55.1524L4.84755 32.6497Z" fill="#EE513B"/>
<path d="M22.7792 9.49036L20.5005 11.7691L26.3859 17.6546C26.1478 18.1654 26.0149 18.735 26.0149 19.3358C26.0149 21.0413 27.0864 22.4964 28.593 23.0648V37.4621C27.0864 38.0304 26.0149 39.4856 26.0149 41.1911C26.0149 43.3916 27.7987 45.1755 29.9992 45.1755C32.1997 45.1755 33.9836 43.3916 33.9836 41.1911C33.9836 39.645 33.1029 38.3044 31.8157 37.644V23.0844L37.4417 28.7104C37.2152 29.2108 37.0892 29.7664 37.0892 30.3514C37.0892 32.5519 38.873 34.3358 41.0735 34.3358C43.274 34.3358 45.0579 32.5519 45.0579 30.3514C45.0579 28.1509 43.274 26.367 41.0735 26.367C40.6459 26.367 40.2341 26.4343 39.8479 26.559L33.8057 20.5168C33.9214 20.1437 33.9836 19.7469 33.9836 19.3358C33.9836 17.1352 32.1997 15.3513 29.9992 15.3513C29.588 15.3513 29.1915 15.4137 28.8182 15.5293L22.7792 9.49036Z" fill="white"/>
</svg>
