<svg width="60" height="60" viewBox="0 0 60 60" fill="none" xmlns="http://www.w3.org/2000/svg">
<path d="M56.25 3.75H3.75V56.25H56.25V3.75Z" fill="#F5DE19"/>
<path d="M39.0169 44.7656C39.4642 45.6742 40.1592 46.438 41.0217 46.9687C41.8842 47.4995 42.8792 47.7758 43.8919 47.7656C45.9356 47.7656 47.2425 46.7437 47.2425 45.3281C47.2425 43.6406 45.9 43.0369 43.65 42.0525L42.4162 41.5238C38.8537 40.0069 36.4912 38.1075 36.4912 34.0912C36.4912 30.3919 39.3037 27.5738 43.7156 27.5738C45.1438 27.4706 46.5708 27.7903 47.8185 28.4928C49.0662 29.1954 50.0795 30.2497 50.7319 31.5244L46.875 33.99C46.6238 33.358 46.1864 32.8172 45.6208 32.4395C45.0552 32.0618 44.3882 31.8649 43.7081 31.875C43.4114 31.8453 43.1118 31.8777 42.8283 31.9702C42.5448 32.0627 42.2837 32.2132 42.0617 32.4122C41.8396 32.6112 41.6614 32.8543 41.5384 33.1259C41.4155 33.3976 41.3504 33.6918 41.3475 33.99C41.3475 35.4694 42.2644 36.0694 44.3812 36.99L45.615 37.5188C49.8075 39.3169 52.1775 41.1487 52.1775 45.2681C52.1775 49.71 48.6881 52.1437 44.0025 52.1437C42.1768 52.2601 40.3565 51.8456 38.7612 50.9503C37.1658 50.055 35.8637 48.7171 35.0119 47.0981L39.0169 44.7656ZM21.5887 45.1931C22.3631 46.5675 23.0681 47.73 24.7631 47.73C26.3831 47.73 27.4069 47.0962 27.4069 44.6306V27.855H32.34V44.6962C32.34 49.8037 29.34 52.1287 24.9731 52.1287C23.4295 52.2131 21.8965 51.8284 20.5757 51.0253C19.2548 50.2221 18.2078 49.038 17.5725 47.6287L21.5887 45.1931Z" fill="black"/>
</svg>
