<svg width="60" height="60" viewBox="0 0 60 60" fill="none" xmlns="http://www.w3.org/2000/svg">
<g clip-path="url(#clip0_90_577)">
<path d="M51 0H9C4.02944 0 0 4.02944 0 9V51C0 55.9706 4.02944 60 9 60H51C55.9706 60 60 55.9706 60 51V9C60 4.02944 55.9706 0 51 0Z" fill="#CC6699"/>
<path d="M30.2344 10.3125C18.9844 14.1797 11.7187 22.0313 12.4219 26.7188C13.125 31.4063 20.1562 35.1563 23.3203 37.6172C19.2187 39.7266 14.0625 42.8906 14.1797 46.9922C14.4141 52.6172 20.5078 50.8594 23.0859 49.2188C25.6641 47.5781 28.2422 43.0078 26.6016 38.2031C30.2344 37.2656 33.3984 38.4375 34.3359 39.1406C37.9687 41.7188 36.0937 44.6484 34.8047 45.1172C33.5156 45.5859 34.3359 45.8203 35.1562 45.5859C35.9766 45.3516 37.7344 44.1797 37.7344 42.1875C37.7344 37.1484 32.3437 34.8047 25.6641 36.5625C21.7969 32.4609 16.5234 30.5859 16.7578 26.1328C16.875 24.4922 17.4609 20.2734 27.8906 15C38.3203 9.72657 45.7031 11.8359 44.7656 16.6406C43.3594 23.9063 30.7031 28.8281 26.25 24.6094C26.0156 24.1406 25.1953 23.7891 25.6641 25.0781C28.0078 30.9375 46.9922 28.2422 47.8125 15.8203C48.0469 9.25782 38.5547 7.50001 30.2344 10.3125ZM20.1562 47.8125C17.2266 48.75 17.3437 46.875 17.4609 46.1719C17.8125 44.1797 19.4531 41.7188 24.375 39.2578C25.7812 43.7109 22.6172 47.1094 20.1562 47.8125Z" fill="white"/>
</g>
<defs>
<clipPath id="clip0_90_577">
<rect width="60" height="60" fill="white"/>
</clipPath>
</defs>
</svg>
